<?xml version="1.0" encoding="UTF-8"?>
<!DOCTYPE svg PUBLIC "-//W3C//DTD SVG 1.1//EN" "http://www.w3.org/Graphics/SVG/1.1/DTD/svg11.dtd">
<!-- Creator: CorelDRAW X7 -->
<svg xmlns="http://www.w3.org/2000/svg" xml:space="preserve" width="162.645mm" height="84.4737mm" version="1.1" style="shape-rendering:geometricPrecision; text-rendering:geometricPrecision; image-rendering:optimizeQuality; fill-rule:evenodd; clip-rule:evenodd"
viewBox="0 0 274989 142822"
 xmlns:xlink="http://www.w3.org/1999/xlink">
 <defs>
  <style type="text/css">
   <![CDATA[
    .fil0 {fill:#01AAD4}
    .fil1 {fill:#03C4D0}
    .fil7 {fill:#0975C9}
    .fil3 {fill:#0F6DDF}
    .fil6 {fill:#30C7D0}
    .fil2 {fill:#4DCADA}
    .fil5 {fill:#61CBE1}
    .fil4 {fill:#7ECDEC}
    .fil8 {fill:#95CFF4}
   ]]>
  </style>
 </defs>
 <g id="Layer_x0020_1">
  <metadata id="CorelCorpID_0Corel-Layer"/>
  <g id="_288483936">
   <path class="fil0" d="M87154 71964c-951,711 -1598,1343 -2743,1957 -1163,623 -2040,1028 -3472,1395 -2542,652 -6395,463 -8360,-489 -1039,781 -22463,3469 -25515,3829 -4434,524 -8810,975 -13263,1368l-13408 1070c-291,-205 -305,331 -201,-398l-269 598c-92,302 -95,385 -186,673l-14011 43085c3202,-162 32825,-5360 36858,-6092 3965,-720 8300,-1741 12242,-2266l752 -603c1759,-1799 3643,-3448 5745,-4849 5431,-3620 12038,-5688 19068,-4721 1874,258 3319,615 4909,1103 1772,545 2803,997 4454,1772 3286,-287 38998,-9359 44014,-10739 2032,-559 4204,-1246 6231,-1680 -19,-761 -1138,-3738 -1413,-4561l-10435 -31618c-64,488 329,264 -1060,691l-3672 1191c-1731,553 -3328,1042 -5027,1559 -6384,1943 -14139,4030 -20654,5534 -1831,423 -3527,818 -5359,1227 -570,128 -4423,1067 -5028,1018l-197 -54z"/>
   <path class="fil1" d="M209427 13478c1509,616 2876,1505 3993,2672 1470,1535 2702,3381 3224,5795 895,4147 -529,8965 -3681,11613 -3402,2858 -7760,3892 -12038,2388 -2668,-938 -5091,-2885 -6433,-5305l-1241 -2699c-821,527 -1546,1139 -2440,1785 -844,611 -1610,1181 -2490,1803 -898,633 -4198,3069 -5091,3380 0,1230 958,5601 1259,6879 526,2233 1171,4229 1799,6360 3960,13449 8463,18504 -480,30973 -255,355 -589,740 -893,1111l-1870 2281c-343,411 -685,765 -1103,1045 -216,-323 -420,-521 -658,-916l-1530 -3481c-2524,-6296 -4927,-13232 -7242,-19670l-5314 -14938 -7574 3803c-4216,2169 -11167,5114 -15676,6928 -1525,614 -6863,2763 -8100,3077l1413 4602c515,1537 982,2942 1504,4508 268,803 8613,25843 9251,27125 1096,-178 2665,-722 3716,-1039 15774,-4761 30849,-9395 46310,-15233 2317,-875 4671,-1837 6947,-2616 535,-690 2905,-5885 3537,-7365l2455 -5419c2382,-5811 5129,-11634 7941,-17253l5762 -12991c2543,-6628 1872,-14032 -2435,-19776 -448,-598 -903,-1241 -1404,-1747 -552,-558 -1016,-1022 -1574,-1574 -589,-583 -2905,-2406 -3689,-2623 -272,387 -446,457 -749,836l-2246 2475c-544,560 -902,1174 -1493,1662 -623,513 -1091,1242 -1667,1544z"/>
   <path class="fil1" d="M217013 70758c1083,-159 10822,-4603 12602,-5387 8919,-3930 21414,-10257 29888,-15195l5608 -3280 3293 -8000c2548,-6412 6257,-13090 6585,-19894l0 -1904c-79,-1586 -364,-3179 -911,-4775 -1478,-4312 -4280,-7042 -8105,-8930 -1158,-570 -2819,-1117 -4356,-1370 -6641,-1092 -12472,1268 -16373,5984 -772,934 -4790,9644 -5553,11482l-3498 7810c-587,1307 -1133,2614 -1763,3962l-15696 35552c-299,663 -550,1358 -862,2001 -257,530 -579,1503 -859,1944z"/>
   <path class="fil2" d="M29608 52209c-183,639 -203,504 1586,743l30598 4758c489,81 1763,195 2195,370 506,-733 1391,-5976 7538,-8927 8358,-4012 18491,1205 19830,10617 550,3859 -443,7071 -2316,9904 -300,453 -540,735 -858,1146 -349,451 -677,693 -1027,1144l197 54c605,49 4458,-890 5028,-1018 1832,-409 3528,-804 5359,-1227 6515,-1504 14270,-3591 20654,-5534 1699,-517 3296,-1006 5027,-1559l3672 -1191c1389,-427 996,-203 1060,-691l-5201 -15872c-4,-13 -155,-502 -174,-539 -187,-377 -70,-249 -383,-480l-1 465c-2686,-580 -7749,-1192 -10768,-1696 -3568,-597 -7044,-1049 -10654,-1657 -12332,-2078 -25240,-3745 -37545,-5829l-16116 -2493c-1840,-296 -3479,-547 -5314,-841l-5383 -799 33 -463c-466,345 -141,-194 -589,1271l-6155 18896c-152,468 -437,911 -293,1448z"/>
   <path class="fil3" d="M213864 78038c-142,482 -631,1436 -855,1946 -300,685 -567,1311 -867,1996 -579,1324 -1175,2631 -1733,3992 -259,631 -579,1285 -879,1985 -1789,4175 -3452,8463 -4175,13003 -836,5260 -391,8231 809,12916l2833 8619c275,690 464,1400 736,2127l2216 6516c1198,3561 2024,9035 7268,9914 1725,289 3460,-676 4340,-1420 2162,-1830 7145,-11468 8537,-14367l5438 -11740c3760,-8048 9651,-22121 12917,-30314l1656 -4069c264,-661 640,-1404 839,-2120 -1307,340 -3319,146 -4872,140 -991,-4 -1389,154 -2428,148 -4885,-28 -9741,273 -14751,280 -912,1 -1281,156 -2283,150l-9826 180c-1391,193 -3292,61 -4920,118z"/>
   <path class="fil3" d="M89754 109396c3013,1540 6111,3467 8551,5837 370,360 562,423 936,782l2647 2792c320,319 484,592 787,931 317,357 551,657 840,1021l3045 4255c3195,4772 6228,12223 7529,17808l40941 0c-24,-1076 -6530,-20235 -7426,-22922 -1282,-3848 -2484,-7593 -3758,-11415 -362,-1088 -3407,-10765 -3847,-11508 -2027,434 -4199,1121 -6231,1680 -5016,1380 -40728,10452 -44014,10739z"/>
   <path class="fil3" d="M148016 94597l6139 17608c236,708 412,1326 690,2030 1639,4141 3977,11448 5392,15793 452,1388 782,2778 1216,4081 852,2554 2011,5167 4121,6472 3445,2131 7038,604 9152,-2112 2190,-2812 4063,-7114 5690,-10342l8887 -20316c243,-583 539,-1260 797,-1780 301,-606 560,-1251 862,-1857l3482 -7112c1201,-2402 2350,-4700 3531,-7062l7014 -14291c-2276,779 -4630,1741 -6947,2616 -15461,5838 -30536,10472 -46310,15233 -1051,317 -2620,861 -3716,1039z"/>
   <path class="fil4" d="M41226 16852l31 257c1353,0 3478,489 4743,674l23928 3701c3213,516 6377,1061 9534,1486l19095 2951c678,109 18614,3039 18826,2812 203,-606 -1442,-5113 -1665,-5780 -645,-1934 -1217,-3857 -2057,-5530 -2657,-5290 -6430,-8584 -11336,-11568 -1542,-939 -3384,-1761 -5127,-2460 -8631,-3457 -17154,-3886 -26613,-2993 -8811,833 -21132,4672 -26579,11642 -626,802 -1085,1405 -1636,2229 -280,419 -413,687 -666,1194 -137,274 -239,434 -348,665 -243,512 -249,232 -130,720z"/>
   <path class="fil5" d="M36645 30594l-33 463 5383 799c1835,294 3474,545 5314,841l16116 2493c12305,2084 25213,3751 37545,5829 3610,608 7086,1060 10654,1657 3019,504 8082,1116 10768,1696l1 -465c195,-584 -815,-3085 -1057,-3811l-3570 -10883c-188,-377 -70,-248 -383,-480 -212,227 -18148,-2703 -18826,-2812l-19095 -2951c-3157,-425 -6321,-970 -9534,-1486l-23928 -3701c-1265,-185 -3390,-674 -4743,-674l-31 -257c-467,293 -569,838 -839,1593l-1683 5189c-403,1206 -709,2268 -1110,3470 -240,721 -1150,2890 -949,3490z"/>
   <path class="fil6" d="M20192 80696c-104,729 -90,193 201,398l13408 -1070c4453,-393 8829,-844 13263,-1368 3052,-360 24476,-3048 25515,-3829 -1374,-653 -2813,-1190 -4048,-2396l-1645 -1648c-2693,-2885 -3709,-7229 -3146,-11234 59,-417 236,-934 247,-1469 -432,-175 -1706,-289 -2195,-370l-30598 -4758c-1789,-239 -1769,-104 -1586,-743 -331,266 -95,-10 -310,377l-9106 28110z"/>
   <path class="fil3" d="M5726 125052l-1483 4406c-472,1604 -917,2883 -1434,4435 -443,1327 -2741,8112 -2809,8929l40511 0c513,-1069 1892,-5236 2760,-7261 5560,-12966 10924,-17605 11555,-18867 -3942,525 -8277,1546 -12242,2266 -4033,732 -33656,5930 -36858,6092z"/>
   <path class="fil7" d="M217013 70758c-1036,2449 -2126,4847 -3149,7280 1628,-57 3529,75 4920,-118l9826 -180c1002,6 1371,-149 2283,-150 5010,-7 9866,-308 14751,-280 1039,6 1437,-152 2428,-148 1553,6 3565,200 4872,-140 351,-617 505,-1167 777,-1848l11390 -28278 -5608 3280c-8474,4938 -20969,11265 -29888,15195 -1780,784 -11519,5228 -12602,5387z"/>
   <path class="fil5" d="M135848 58362c1237,-314 6575,-2463 8100,-3077 4509,-1814 11460,-4759 15676,-6928l7574 -3803 -3053 -8573c-22,-25 -61,-65 -96,-91l28 114c-833,0 -1659,-176 -2433,-307l-6832 -1041c-7476,-1151 -15304,-2500 -22798,-3542 -1397,-195 -3040,-554 -4468,-701 13,668 647,2820 857,3617 1527,5773 4377,15221 6282,20917l967 3041c17,41 75,160 92,193l104 181z"/>
   <path class="fil4" d="M127546 30413c1428,147 3071,506 4468,701 7494,1042 15322,2391 22798,3542l6832 1041c774,131 1600,307 2433,307l-28 -114c199,-594 -269,-1449 -484,-2093l-2040 -6120c-232,-691 -2382,-7604 -3059,-8106 -30,297 69,177 -131,274 -32,-20 -80,-33 -105,-41 -25,-9 -76,-30 -107,-40 -31,-9 -75,-24 -111,-34l-728 -132c-395,-55 -773,-103 -1004,-141 -7586,-1250 -15676,-2332 -23169,-3600 -2118,-358 -6559,-917 -8286,-1309l0 -989c-273,114 -306,-184 -302,994 1,382 -7,920 24,1289 326,3960 1117,6901 1936,10661l910 3664c110,238 61,137 153,246z"/>
   <path class="fil8" d="M124825 13559l0 989c1727,392 6168,951 8286,1309 7493,1268 15583,2350 23169,3600 231,38 609,86 1004,141l728 132c36,10 80,25 111,34 31,10 82,31 107,40 25,8 73,21 105,41 200,-97 101,23 131,-274 146,-600 -669,-2374 -901,-2964 -1147,-2920 -1883,-5947 -3658,-8367 -4862,-6630 -14786,-9554 -22555,-4187 -1867,1289 -4866,4087 -5811,6213 -270,608 -1001,2557 -716,3293z"/>
   <path class="fil8" d="M183659 20144l0 348c673,180 1670,280 2314,389l4710 732c776,107 1538,310 2282,310 0,-1002 -54,-87 286,-490 207,-186 267,-740 385,-1046 158,-414 296,-767 470,-1106 290,-566 876,-1534 1269,-2023 1008,-1255 2087,-2203 3517,-3068 2735,-1655 7181,-2193 10535,-712 576,-302 1044,-1031 1667,-1544 591,-488 949,-1102 1493,-1662l2246 -2475c303,-379 477,-449 749,-836 -1011,-1295 -7166,-3188 -9603,-3410 -10842,-986 -18633,4108 -21838,13925 -149,459 -222,782 -357,1219 -150,489 -358,845 -125,1449z"/>
   <path class="fil4" d="M183230 34910c893,-311 4193,-2747 5091,-3380 880,-622 1646,-1192 2490,-1803 894,-646 1619,-1258 2440,-1785 -11,-570 -146,-986 -231,-1556 -59,-402 -140,-1471 -152,-1693 -53,-983 329,-2343 383,-3260 -340,403 -286,-512 -286,490 -744,0 -1506,-203 -2282,-310l-4710 -732c-644,-109 -1641,-209 -2314,-389l0 -348c-216,171 -201,-54 -385,770l-374 2621c-347,2515 -277,9998 330,11375z"/>
  </g>
 </g>
</svg>
